HIERARCHY
ROOT Hips
{
	OFFSET -0.001795 -0.223333 0.028219
	CHANNELS 6 Xposition Yposition Zposition Zrotation Yrotation Xrotation 
	JOINT LeftUpLeg
	{
		OFFSET 0.069520 -0.091406 -0.006815
		CHANNELS 3 Zrotation Yrotation Xrotation
		JOINT LeftLeg
		{
			OFFSET 0.034277 -0.375199 -0.004496
			CHANNELS 3 Zrotation Yrotation Xrotation
			JOINT LeftFoot
			{
				OFFSET -0.013596 -0.397961 -0.043693
				CHANNELS 3 Zrotation Yrotation Xrotation
				JOINT LeftToe
				{
					OFFSET 0.026358 -0.055791 0.119288
					CHANNELS 3 Zrotation Yrotation Xrotation
					End Site
					{
						OFFSET 0.000000 0.000000 0.000000
					}
				}
			}
		}
	}
	JOINT RightUpLeg
	{
		OFFSET -0.067670 -0.090522 -0.004320
		CHANNELS 3 Zrotation Yrotation Xrotation
		JOINT RightLeg
		{
			OFFSET -0.038290 -0.382569 -0.008850
			CHANNELS 3 Zrotation Yrotation Xrotation
			JOINT RightFoot
			{
				OFFSET 0.015774 -0.398415 -0.042312
				CHANNELS 3 Zrotation Yrotation Xrotation
				JOINT RightToe
				{
					OFFSET -0.025372 -0.048144 0.123348
					CHANNELS 3 Zrotation Yrotation Xrotation
					End Site
					{
						OFFSET 0.000000 0.000000 0.000000
					}
				}
			}
		}
	}
	JOINT Spine
	{
		OFFSET -0.002533 0.108963 -0.026696
		CHANNELS 3 Zrotation Yrotation Xrotation
		JOINT Spine1
		{
			OFFSET 0.005487 0.135180 0.001092
			CHANNELS 3 Zrotation Yrotation Xrotation
			JOINT Spine2
			{
				OFFSET 0.001457 0.052922 0.025425
				CHANNELS 3 Zrotation Yrotation Xrotation
				JOINT Neck
				{
					OFFSET -0.002778 0.213870 -0.042857
					CHANNELS 3 Zrotation Yrotation Xrotation
					JOINT Head
					{
						OFFSET 0.005152 0.064970 0.051349
						CHANNELS 3 Zrotation Yrotation Xrotation
						End Site
						{
							OFFSET 0.000000 0.000000 0.000000
						}
					}
				}
				JOINT LeftShoulder
				{
					OFFSET 0.078845 0.121749 -0.034090
					CHANNELS 3 Zrotation Yrotation Xrotation
					JOINT LeftArm
					{
						OFFSET 0.090977 0.030469 -0.008868
						CHANNELS 3 Zrotation Yrotation Xrotation
						JOINT LeftForeArm
						{
							OFFSET 0.259612 -0.012772 -0.027456
							CHANNELS 3 Zrotation Yrotation Xrotation
							JOINT LeftHand
							{
								OFFSET 0.249234 0.008986 -0.001171
								CHANNELS 3 Zrotation Yrotation Xrotation
								End Site
								{
									OFFSET 0.000000 0.000000 0.000000
								}
							}
						}
					}
				}
				JOINT RightShoulder
				{
					OFFSET -0.081759 0.118833 -0.038615
					CHANNELS 3 Zrotation Yrotation Xrotation
					JOINT RightArm
					{
						OFFSET -0.096012 0.032551 -0.009143
						CHANNELS 3 Zrotation Yrotation Xrotation
						JOINT RightForeArm
						{
							OFFSET -0.253742 -0.013329 -0.021401
							CHANNELS 3 Zrotation Yrotation Xrotation
							JOINT RightHand
							{
								OFFSET -0.255298 0.007772 -0.005559
								CHANNELS 3 Zrotation Yrotation Xrotation
								End Site
								{
									OFFSET 0.000000 0.000000 0.000000
								}
							}
						}
					}
				}
			}
		}
	}
}
MOTION
Frames: 14
Frame Time: 0.050000
0.000000 1.034126 0.000000 -3.742053 -4.323347 7.194932 4.741753 -0.104753 -0.658731 6.876373 3.128428 -34.825876 -9.267492 16.999345 99.108562 0.000000 0.000000 0.000000 3.282353 1.410260 -11.733047 5.881780 -0.006129 -23.729686 -30.923405 -24.740079 105.837296 0.000000 0.000000 0.000000 -0.469789 0.553489 -10.900929 5.194777 4.763438 -83.976862 -6.644039 6.256990 100.423287 2.210316 2.859307 -100.045755 0.000000 0.000000 0.000000 -20.364617 3.036874 2.269724 -42.533805 -28.415269 -13.006299 -113.663161 41.524766 -36.873483 0.000000 0.000000 0.000000 21.307730 -0.929494 3.820210 49.655567 12.563694 -19.273503 153.250964 -45.811601 -90.331696 0.000000 0.000000 0.000000 
-0.001307 1.026015 -0.001253 -4.101462 -0.956861 10.173083 5.689495 -0.148240 0.367699 4.482104 3.180417 -44.791117 -5.653238 17.274440 101.324301 0.000000 0.000000 0.000000 2.247963 1.729387 -15.009841 6.409241 -0.211145 -23.344221 -32.838325 -24.935367 111.747169 0.000000 0.000000 0.000000 -1.927019 0.430591 -12.256007 3.180884 3.847963 -94.541689 -6.866512 3.792020 108.019455 -9.977673 4.316768 -94.379945 0.000000 0.000000 0.000000 -18.086786 2.311131 2.509260 -42.043550 -28.023177 -13.988935 -125.158714 39.945308 -44.486853 0.000000 0.000000 0.000000 17.923285 -4.241739 1.613934 50.442576 4.809162 -24.298920 169.209882 -49.584955 -126.779166 0.000000 0.000000 0.000000 
-0.001229 1.021120 -0.002516 -4.744308 -1.664051 10.010138 4.695443 -0.080745 0.930589 5.801087 3.908153 -46.554233 -9.354856 16.356265 100.104589 0.000000 0.000000 0.000000 3.933418 1.800688 -14.376103 6.850562 -0.093283 -23.855170 -33.171459 -25.489204 108.505897 0.000000 0.000000 0.000000 2.394820 0.849523 -13.794069 -4.702730 0.697252 -90.337054 -3.384337 -0.836121 107.239075 -7.533595 3.334333 -100.069471 0.000000 0.000000 0.000000 -20.949142 1.464481 4.305974 -39.892041 -31.660450 -13.924936 -119.715060 40.772725 -38.654765 0.000000 0.000000 0.000000 19.025142 -2.222216 2.660502 47.319395 1.202293 -24.931622 172.769470 -49.522682 -141.992060 0.000000 0.000000 0.000000 
-0.000637 1.022534 -0.003956 -5.297448 -3.502454 9.849278 3.254306 -0.047054 0.453893 7.743475 4.682435 -45.017318 -15.026430 14.972667 98.191099 0.000000 0.000000 0.000000 3.921191 1.649555 -13.219802 8.917114 0.378475 -25.324622 -34.951741 -25.878834 106.606918 0.000000 0.000000 0.000000 2.455385 0.982120 -14.286738 -1.069467 2.657673 -91.338669 -3.513849 3.026869 108.795927 -2.566654 2.800368 -96.626310 0.000000 0.000000 0.000000 -20.389182 1.976857 3.497077 -41.200393 -32.076752 -14.296741 -125.735246 40.778695 -42.659590 0.000000 0.000000 0.000000 21.425890 -3.130156 3.056182 45.724147 0.897998 -25.107745 174.377527 -48.938219 -146.076624 0.000000 0.000000 0.000000 
0.000607 1.024238 -0.005068 -5.082514 -3.418736 10.065946 2.142294 -0.255874 -2.777497 9.283301 4.327526 -40.009435 -17.089553 13.710529 95.600934 0.000000 0.000000 0.000000 2.746871 1.364593 -11.745493 9.304679 0.600851 -28.247579 -29.196334 -24.911806 104.523294 0.000000 0.000000 0.000000 0.965488 0.930637 -15.453141 2.521948 3.790140 -89.663764 -4.953664 6.452150 110.379146 -4.411874 3.005208 -100.370040 0.000000 0.000000 0.000000 -19.797529 1.771361 3.191427 -41.047595 -29.991486 -15.651531 -127.645602 41.661357 -46.977911 0.000000 0.000000 0.000000 23.590067 -2.359413 4.592794 44.583647 3.660375 -24.916083 169.616619 -47.374302 -133.686853 0.000000 0.000000 0.000000 
0.002303 1.022895 -0.006519 -4.905813 -1.991714 9.389719 2.175347 -0.379914 -4.516712 7.700202 3.262516 -36.730140 -12.792356 14.133430 93.685820 0.000000 0.000000 0.000000 1.836432 0.921522 -8.548657 8.792323 0.553288 -32.121643 -27.176275 -24.788741 104.165812 0.000000 0.000000 0.000000 -3.044443 0.499873 -16.685710 8.835343 3.971237 -74.168819 -7.498881 8.719710 95.729709 -7.465098 3.316350 -99.694053 0.000000 0.000000 0.000000 -22.714829 1.306712 2.693481 -39.960341 -26.118900 -13.409726 -128.438760 41.626920 -54.783508 0.000000 0.000000 0.000000 29.837855 -2.301564 5.071572 39.521852 5.229975 -18.977403 161.244856 -42.394988 -116.978079 0.000000 0.000000 0.000000 
0.003951 1.024124 -0.008993 -4.715527 -1.803310 8.773840 2.812678 -0.553928 -7.424372 4.162618 2.008391 -31.685096 -5.795278 16.190731 93.401997 0.000000 0.000000 0.000000 0.206229 0.548906 -5.472347 10.320064 1.040857 -35.786013 -23.476618 -24.098278 102.529878 0.000000 0.000000 0.000000 -6.252689 0.136782 -16.002751 16.665566 5.341372 -71.533411 -10.272105 13.398915 92.779292 -10.324700 3.771452 -97.880474 0.000000 0.000000 0.000000 -22.419825 2.570140 0.729820 -41.675715 -20.469993 -14.274179 -130.599953 47.295825 -69.251902 0.000000 0.000000 0.000000 29.819678 -0.825637 6.579291 38.576881 8.100695 -16.933126 154.940984 -38.001725 -98.806654 0.000000 0.000000 0.000000 
0.005099 1.026014 -0.011269 -4.650554 -1.986126 9.170590 3.224570 -0.707913 -10.352725 2.222785 1.447481 -28.074469 0.140048 18.493775 97.393959 0.000000 0.000000 0.000000 -1.388301 0.333614 -3.128815 10.817061 1.538523 -40.761722 -20.557901 -22.981232 104.874315 0.000000 0.000000 0.000000 -9.250973 -0.119882 -15.419097 23.919323 6.095161 -67.893240 -12.424462 16.383011 87.486290 -14.643532 4.220184 -96.607353 0.000000 0.000000 0.000000 -24.185859 3.375858 -1.148450 -44.254529 -13.849297 -14.983080 -134.644196 53.576330 -86.247059 0.000000 0.000000 0.000000 29.014694 -0.318992 6.939626 38.008332 11.407649 -14.663114 148.194553 -34.551213 -78.950987 0.000000 0.000000 0.000000 
0.005086 1.023599 -0.009665 -3.810499 -2.204872 11.154825 2.754417 -0.928359 -13.421642 1.162583 1.326516 -28.010276 6.790250 20.438895 99.960978 0.000000 0.000000 0.000000 -2.053246 0.237285 -1.728066 7.522946 0.975971 -46.280425 -22.423162 -22.871708 108.972920 0.000000 0.000000 0.000000 -11.613885 -0.366508 -18.125380 26.792097 7.429063 -70.208949 -13.237490 17.326038 92.143924 -25.312613 4.869881 -99.041635 0.000000 0.000000 0.000000 -25.015033 6.584892 -2.771716 -46.228583 -8.018365 -18.968079 -145.257489 61.820808 -107.052845 0.000000 0.000000 0.000000 27.250726 0.294010 7.399520 37.294126 18.209842 -14.001765 145.592567 -31.318010 -64.963801 0.000000 0.000000 0.000000 
0.003854 1.019826 -0.002185 -3.098996 -2.512476 12.229002 2.967973 -0.943423 -14.063965 0.905492 1.362559 -28.627968 10.330562 21.449296 102.874131 0.000000 0.000000 0.000000 -1.562245 0.005077 0.824038 4.959292 0.367788 -50.306568 -22.801756 -22.708578 110.149066 0.000000 0.000000 0.000000 -11.416074 -0.365742 -20.402681 25.554315 8.508429 -74.771162 -9.738880 18.154030 100.054522 -26.869273 4.671692 -99.975104 0.000000 0.000000 0.000000 -23.431912 8.049030 -3.337760 -49.573189 -4.728145 -23.512302 -160.799870 68.953441 -129.878117 0.000000 0.000000 0.000000 26.876369 -0.586667 7.568657 38.292700 26.147440 -13.890074 144.693027 -28.327029 -48.832462 0.000000 0.000000 0.000000 
0.002337 1.018521 0.005339 -2.601799 0.157771 12.413013 2.604459 -0.897823 -12.007629 -0.521887 1.035893 -31.665261 14.499263 21.435870 106.050001 0.000000 0.000000 0.000000 0.561363 -0.439771 3.881219 1.498492 -1.702981 -54.286019 -25.143842 -22.948774 116.254998 0.000000 0.000000 0.000000 -12.775618 -0.828661 -20.747555 28.405929 9.496145 -77.842008 -11.315031 21.044314 102.562895 -25.189095 4.668203 -100.863405 0.000000 0.000000 0.000000 -22.737662 10.121177 -5.159864 -50.695683 -0.918726 -26.538472 177.581977 70.242367 -159.472864 0.000000 0.000000 0.000000 27.879013 -1.024588 8.624451 39.559762 31.467983 -13.648730 144.083552 -27.899631 -39.087384 0.000000 0.000000 0.000000 
0.001209 1.017353 0.008965 -3.292981 0.640594 12.634894 4.136598 -0.774786 -11.561663 -1.647554 0.860868 -34.632591 15.708322 21.477842 107.406112 0.000000 0.000000 0.000000 2.274492 -0.144835 0.319857 -0.959140 -2.457975 -48.760407 -27.571440 -23.392564 116.882923 0.000000 0.000000 0.000000 -10.592034 -0.642147 -22.057498 22.701397 8.730718 -81.883985 -7.747847 17.688871 108.317586 -21.503408 4.346410 -100.960674 0.000000 0.000000 0.000000 -23.523633 11.457048 -5.218305 -52.321081 -1.085641 -29.322710 165.694966 68.573590 -168.641850 0.000000 0.000000 0.000000 26.534889 -0.149998 8.544816 41.949859 34.454283 -13.792050 141.202925 -28.642402 -30.821459 0.000000 0.000000 0.000000 
0.001624 1.016264 0.008330 -2.544633 2.138848 11.296959 3.991177 -0.597331 -8.042034 -3.551479 0.242930 -37.269703 16.925190 21.280521 106.167587 0.000000 0.000000 0.000000 1.135856 0.026644 -0.622167 -1.978142 -2.860201 -44.752445 -23.435546 -23.352768 116.183701 0.000000 0.000000 0.000000 -9.265821 -0.417912 -17.575149 16.300771 7.544439 -90.408984 -3.567636 12.059525 113.201051 -25.613022 5.011685 -98.823363 0.000000 0.000000 0.000000 -23.300880 9.838583 -2.863647 -56.216736 -5.946385 -29.595726 171.104766 65.021474 -149.875758 0.000000 0.000000 0.000000 24.598010 -1.118313 6.738211 45.225009 35.699850 -13.820689 141.386088 -29.688610 -28.205077 0.000000 0.000000 0.000000 
0.004497 1.016947 0.005125 -2.524239 1.967193 11.622808 3.051422 -0.592348 -7.495235 -3.721718 0.207620 -38.926622 12.382718 20.439252 107.711755 0.000000 0.000000 0.000000 0.647081 0.348013 -3.472575 -2.187397 -2.616269 -41.340582 -18.612211 -22.570805 116.322664 0.000000 0.000000 0.000000 -6.783306 -0.129596 -18.048116 13.233756 7.755671 -98.609253 -3.705435 11.694333 122.768936 -20.547615 4.341007 -101.741129 0.000000 0.000000 0.000000 -21.535158 11.451960 -2.508481 -61.288760 -10.150875 -32.403639 173.600516 64.949780 -126.075202 0.000000 0.000000 0.000000 20.502364 1.773420 6.643011 51.160590 37.656181 -14.345321 142.774204 -31.382382 -23.423727 0.000000 0.000000 0.000000 
